<svg width="53" height="18" viewBox="0 0 53 18" fill="none" xmlns="http://www.w3.org/2000/svg">
<path d="M35.0508 11.8443V7.02591H30.0898V11.8443H27.9395V0.198242H30.0898V5.02739H35.0508V0.198242H37.1887V11.8443H35.0508Z" fill="#003A70"/>
<path d="M24.1036 2.72194C24.2695 3.02226 24.3566 3.45117 24.3566 3.95723V11.8443H26.4497V3.2952C26.4497 2.48385 26.2772 1.79029 25.9304 1.23943C25.4003 0.429737 24.5317 0 23.4142 0C21.9466 0 20.849 0.702678 19.8784 1.65424L19.3939 2.12463V0.199108H15.8125V1.88155H17.4004V11.846H19.4926V3.25704L19.5955 3.17242C20.3181 2.57345 21.4115 1.85501 22.5356 1.85501C23.4581 1.85584 23.8987 2.32705 24.1036 2.72194Z" fill="#003A70"/>
<path d="M0.283203 14.3099H0.691384V15.9169H2.7795V14.3099H3.18766V17.9279H2.7795V16.3002H0.691384V17.9279H0.283203V14.3099Z" fill="#003A70"/>
<path d="M4.05078 16.1292V16.1184C4.05078 15.1213 4.7999 14.2477 5.90079 14.2477C7.00168 14.2477 7.74087 15.1105 7.74087 16.1085V16.1184C7.74087 17.1156 6.99173 17.9892 5.89085 17.9892C4.78996 17.9892 4.05078 17.1264 4.05078 16.1292ZM7.31694 16.1292V16.1184C7.31694 15.2971 6.71713 14.6252 5.89085 14.6252C5.06373 14.6252 4.4747 15.2863 4.4747 16.1085V16.1184C4.4747 16.9398 5.0745 17.6117 5.90079 17.6117C6.72708 17.6126 7.31694 16.9514 7.31694 16.1292Z" fill="#003A70"/>
<path d="M9.31219 14.6874H8.09766V14.3099H10.9399V14.6874H9.72534V17.9279H9.31219V14.6874Z" fill="#003A70"/>
<path d="M11.7051 14.3099H14.32V14.6824H12.1132V15.9177H14.0877V16.2894H12.1132V17.5554H14.3457V17.927H11.7051V14.3099Z" fill="#003A70"/>
<path d="M15.1668 14.3099H15.575V17.5504H17.6109V17.9279H15.166V14.3099H15.1668Z" fill="#003A70"/>
<path d="M18.127 17.401L18.38 17.1015C18.7575 17.4425 19.1192 17.6134 19.6202 17.6134C20.1056 17.6134 20.4266 17.3554 20.4266 16.9986V16.9879C20.4266 16.6519 20.2458 16.4611 19.4858 16.3001C18.6537 16.1193 18.2713 15.8505 18.2713 15.2565V15.2465C18.2713 14.6782 18.7724 14.2593 19.4601 14.2593C19.9869 14.2593 20.3644 14.4094 20.7311 14.704L20.4938 15.0192C20.1578 14.7454 19.8218 14.6268 19.4502 14.6268C18.9798 14.6268 18.6803 14.8848 18.6803 15.2108V15.2208C18.6803 15.5618 18.8661 15.7534 19.6626 15.9235C20.4689 16.0993 20.8406 16.3939 20.8406 16.9464V16.9563C20.8406 17.5769 20.3238 17.9792 19.6053 17.9792C19.0321 17.9792 18.5617 17.7884 18.127 17.401Z" fill="#003A70"/>
<path d="M25.2646 17.416C24.9336 17.7727 24.5511 17.9793 24.0807 17.9793C23.4295 17.9793 22.9434 17.5711 22.9434 16.9663V16.9555C22.9434 16.4752 23.2636 16.1284 23.8169 15.9119C23.5689 15.6224 23.4552 15.4 23.4552 15.1163V15.1064C23.4552 14.631 23.8377 14.2485 24.4109 14.2485C24.917 14.2485 25.2895 14.6152 25.2895 15.0649V15.0748C25.2895 15.5344 24.9635 15.8289 24.4367 16.0156L25.2638 16.8577C25.4239 16.6254 25.5682 16.3508 25.6977 16.0513L26.0336 16.2064C25.8735 16.5474 25.7084 16.8577 25.5118 17.1157L26.1423 17.7619L25.832 18L25.2646 17.416ZM25.0165 17.1629L24.05 16.1658C23.5697 16.3416 23.3573 16.6361 23.3573 16.9406V16.9514C23.3573 17.3388 23.6676 17.6333 24.1114 17.6333C24.4532 17.6333 24.7527 17.4525 25.0165 17.1629ZM24.9079 15.0956V15.0856C24.9079 14.7961 24.6905 14.5845 24.396 14.5845C24.07 14.5845 23.8485 14.8118 23.8485 15.1064V15.1163C23.8485 15.3279 23.9364 15.4888 24.2102 15.7833C24.6706 15.6282 24.9079 15.4058 24.9079 15.0956Z" fill="#003A70"/>
<path d="M28.3719 14.3099H29.9274C30.3721 14.3099 30.7288 14.4443 30.9561 14.6716C31.132 14.8475 31.2349 15.1005 31.2349 15.3851V15.3951C31.2349 15.9949 30.8217 16.3458 30.2526 16.4495L31.3635 17.9279H30.8624L29.813 16.5225H28.7793V17.9279H28.3711V14.3099H28.3719ZM29.8909 16.155C30.4335 16.155 30.8209 15.8762 30.8209 15.4108V15.4009C30.8209 14.9562 30.48 14.6874 29.8959 14.6874H28.7793V16.155H29.8909Z" fill="#003A70"/>
<path d="M32.1074 14.3099H34.7223V14.6824H32.5156V15.9177H34.4901V16.2894H32.5156V17.5554H34.7481V17.927H32.1074V14.3099Z" fill="#003A70"/>
<path d="M35.332 17.401L35.5851 17.1015C35.9625 17.4425 36.3242 17.6134 36.8253 17.6134C37.3106 17.6134 37.6317 17.3554 37.6317 16.9986V16.9879C37.6317 16.6519 37.4509 16.4611 36.6909 16.3001C35.8588 16.1193 35.4764 15.8505 35.4764 15.2565V15.2465C35.4764 14.6782 35.9775 14.2593 36.6652 14.2593C37.192 14.2593 37.5695 14.4094 37.9362 14.704L37.6989 15.0192C37.3629 14.7454 37.0269 14.6268 36.6553 14.6268C36.1849 14.6268 35.8854 14.8848 35.8854 15.2108V15.2208C35.8854 15.5618 36.0712 15.7534 36.8676 15.9235C37.674 16.0993 38.0457 16.3939 38.0457 16.9464V16.9563C38.0457 17.5769 37.5288 17.9792 36.8104 17.9792C36.2363 17.9792 35.7659 17.7884 35.332 17.401Z" fill="#003A70"/>
<path d="M38.7168 16.1292V16.1184C38.7168 15.1213 39.4659 14.2477 40.5668 14.2477C41.6677 14.2477 42.4069 15.1105 42.4069 16.1085V16.1184C42.4069 17.1156 41.6578 17.9892 40.5569 17.9892C39.456 17.99 38.7168 17.1264 38.7168 16.1292ZM41.983 16.1292V16.1184C41.983 15.2971 41.3832 14.6252 40.5569 14.6252C39.7298 14.6252 39.1407 15.2863 39.1407 16.1085V16.1184C39.1407 16.9398 39.7405 17.6117 40.5668 17.6117C41.3939 17.6126 41.983 16.9514 41.983 16.1292Z" fill="#003A70"/>
<path d="M43.2704 14.3099H44.8259C45.2705 14.3099 45.6273 14.4443 45.8546 14.6716C46.0305 14.8475 46.1333 15.1005 46.1333 15.3851V15.3951C46.1333 15.9949 45.7202 16.3458 45.1511 16.4495L46.2619 17.9279H45.7608L44.7114 16.5225H43.6777V17.9279H43.2695V14.3099H43.2704ZM44.7902 16.155C45.3328 16.155 45.7202 15.8762 45.7202 15.4108V15.4009C45.7202 14.9562 45.3792 14.6874 44.7952 14.6874H43.6785V16.155H44.7902Z" fill="#003A70"/>
<path d="M47.9274 14.6874H46.7129V14.3099H49.5551V14.6874H48.3406V17.9279H47.9274V14.6874Z" fill="#003A70"/>
<path d="M50.0039 17.401L50.2569 17.1015C50.6344 17.4425 50.9961 17.6134 51.4972 17.6134C51.9825 17.6134 52.3036 17.3554 52.3036 16.9986V16.9879C52.3036 16.6519 52.1227 16.4611 51.3628 16.3001C50.5307 16.1193 50.1483 15.8505 50.1483 15.2565V15.2465C50.1483 14.6782 50.6493 14.2593 51.3371 14.2593C51.8639 14.2593 52.2413 14.4094 52.608 14.704L52.3708 15.0192C52.0348 14.7454 51.6988 14.6268 51.3271 14.6268C50.8567 14.6268 50.5572 14.8848 50.5572 15.2108V15.2208C50.5572 15.5618 50.7431 15.7534 51.5395 15.9235C52.3459 16.0993 52.7175 16.3939 52.7175 16.9464V16.9563C52.7175 17.5769 52.2007 17.9792 51.4823 17.9792C50.9082 17.9792 50.4378 17.7884 50.0039 17.401Z" fill="#003A70"/>
</svg>
